<svg xmlns="http://www.w3.org/2000/svg" xmlns:xlink="http://www.w3.org/1999/xlink" fill="none" version="1.1" width="12" height="12" viewBox="0 0 12 12"><g transform="matrix(1,0,0,-1,0,24)"><g></g><g><path d="M6.20121,12.8262964L10.43432,16.90857C10.5029,16.97447,10.51931,17.06805,10.47629,17.14781C10.43327,17.22758,10.33876,17.27879,10.23467,17.27873L8.15399,17.27873C8.02168,17.27777,7.90928,17.35998,7.89196,17.47037C7.73598,18.42072,6.7939,22.62375,2.333072,23.2459C2.213167,23.2654,2.092961,23.2135,2.041928,23.1201C1.990894,23.026699999999998,2.022232,22.9161,2.117829,22.8521C2.8821000000000003,22.348100000000002,3.88033,21.371499999999997,4.16108,19.633589999999998C4.26886,18.92757,4.32097,18.21632,4.31705,17.5045C4.31709,17.38038,4.199339999999999,17.278959999999998,4.0519,17.27611L1.765329,17.27611C1.661238,17.27616,1.5667351,17.22496,1.5237124,17.14519C1.4806896,17.06542,1.49710566,16.97185,1.5656837,16.90594L5.80191,12.8262964C5.90757,12.7245679,6.09555,12.7245679,6.20121,12.8262964Z" fill="#4DB803" fill-opacity="1"/></g></g></svg>