<svg xmlns="http://www.w3.org/2000/svg" xmlns:xlink="http://www.w3.org/1999/xlink" fill="none" version="1.1" width="12" height="12" viewBox="0 0 12 12"><g><g></g><g><path d="M6.20121,0.8262964L10.43432,4.90857C10.5029,4.97447,10.51931,5.06805,10.47629,5.14781C10.43327,5.22758,10.33876,5.27879,10.23467,5.27873L8.15399,5.27873C8.02168,5.27777,7.90928,5.35998,7.89196,5.47037C7.73598,6.42072,6.7939,10.62375,2.333072,11.2459C2.213167,11.2654,2.092961,11.2135,2.041928,11.1201C1.990894,11.0267,2.022232,10.9161,2.117829,10.8521C2.8821000000000003,10.3481,3.88033,9.3715,4.16108,7.63359C4.26886,6.92757,4.32097,6.21632,4.31705,5.5045C4.31709,5.38038,4.199339999999999,5.27896,4.0519,5.27611L1.765329,5.27611C1.661238,5.27616,1.5667351,5.22496,1.5237124,5.14519C1.4806896,5.06542,1.49710566,4.97185,1.5656837,4.90594L5.80191,0.8262964C5.90757,0.7245679,6.09555,0.7245679,6.20121,0.8262964Z" fill="#FF522B" fill-opacity="1"/></g></g></svg>